<svg width="40" height="40" viewBox="0 0 40 40" fill="none" xmlns="http://www.w3.org/2000/svg">
<path d="M34.6231 39.3512H5.12573C4.47477 39.3727 3.82643 39.2589 3.2217 39.017C2.61697 38.7751 2.06901 38.4104 1.61247 37.9458C1.15147 37.4926 0.788781 36.9492 0.547003 36.3496C0.305224 35.7499 0.189541 35.107 0.207163 34.4607V4.92114C0.185634 4.27018 0.299413 3.62184 0.541306 3.01711C0.783198 2.41238 1.14794 1.86442 1.61247 1.40788C2.06901 0.943351 2.61697 0.578609 3.2217 0.336716C3.82643 0.0948232 4.47477 -0.0189561 5.12573 0.00257272H34.6372C35.2881 -0.0189561 35.9365 0.0948232 36.5412 0.336716C37.1459 0.578609 37.6939 0.943351 38.1504 1.40788C38.615 1.86442 38.9797 2.41238 39.2216 3.01711C39.4635 3.62184 39.5773 4.27018 39.5557 4.92114V34.4326C39.5483 35.7372 39.0258 36.9861 38.102 37.9073C37.1781 38.8285 35.9278 39.3475 34.6231 39.3512ZM26.8096 31.3831C27.8357 31.3697 28.8268 31.0079 29.6202 30.3572C30.1884 30.0044 30.6678 29.5256 31.0211 28.9578C31.3745 28.39 31.5924 27.7484 31.6579 27.0828C31.5997 26.6369 31.4353 26.2114 31.1785 25.8421C30.9218 25.4729 30.5801 25.1707 30.1823 24.9608C29.3156 24.2956 28.4048 23.6899 27.4561 23.148C26.9064 22.6284 26.188 22.3241 25.4324 22.2907H24.8141C24.4393 22.2907 23.9709 22.7592 23.4088 23.696C23.2593 23.9325 23.0515 24.1265 22.8054 24.2594C22.5593 24.3923 22.2831 24.4596 22.0035 24.4549C21.634 24.4439 21.2706 24.3578 20.9354 24.2019C18.3415 23.1674 16.2642 21.1457 15.1596 18.5807C14.9329 18.1815 14.8075 17.7327 14.7942 17.2738C14.8057 17.0618 14.8292 16.8507 14.8645 16.6414C14.8645 16.3322 15.2158 16.009 15.8201 15.6436C16.1699 15.4164 16.4827 15.1367 16.7476 14.8145C17.0226 14.4525 17.1574 14.0033 17.1271 13.5497C16.9411 12.8607 16.6368 12.2092 16.2277 11.6245C14.4851 8.95438 13.0798 7.61933 12.0117 7.61933C11.7432 7.61939 11.4767 7.66697 11.2248 7.75986C9.00438 8.53278 7.92229 9.83972 7.92229 11.7509C7.93215 12.4162 8.06558 13.0738 8.31578 13.6903C9.88492 17.6102 12.2334 21.1709 15.2191 24.1565C18.2048 27.1422 21.7654 29.4907 25.6854 31.0598C26.0211 31.2737 26.4116 31.3859 26.8096 31.3831ZM30.7585 19.6769C31.1145 19.6769 31.3113 19.5644 31.3488 19.3396C31.3712 19.2188 31.3712 19.095 31.3488 18.9742C31.3538 18.8759 31.3538 18.7774 31.3488 18.6791C31.3327 18.5437 31.3327 18.4069 31.3488 18.2716C31.3654 16.4246 30.8796 14.6079 29.9434 13.0157C29.0184 11.4114 27.722 10.0525 26.1632 9.05274C24.5893 8.01397 22.7632 7.42145 20.8792 7.33827H20.5982H20.1625C19.755 7.33827 19.5582 7.57717 19.5582 8.04092C19.5464 8.12624 19.56 8.21317 19.5976 8.29071C19.6351 8.36825 19.6948 8.43293 19.769 8.47657C19.9184 8.54974 20.0808 8.59272 20.2468 8.60305C20.3976 8.6025 20.5466 8.63613 20.6825 8.70142C23.182 8.90541 25.5415 9.93925 27.3858 11.6385C29.0221 13.5327 30.0072 15.9021 30.1964 18.398L30.1261 18.8899C30.1322 19.0744 30.1557 19.2579 30.1964 19.438C30.2667 19.5363 30.4353 19.6769 30.7585 19.6769ZM27.9479 18.5526C28.1024 18.5044 28.2349 18.4033 28.3223 18.2671C28.4097 18.1309 28.4463 17.9683 28.4257 17.8078V17.5548C28.4142 17.4756 28.4142 17.3952 28.4257 17.3159C28.4502 15.5817 27.7943 13.9069 26.5988 12.6503C25.3686 11.3163 23.7252 10.4352 21.9332 10.1489C21.6808 10.0832 21.4211 10.0501 21.1603 10.0505H20.7808C20.5982 10.0505 20.4857 10.3456 20.4436 10.8234C20.4014 11.3012 20.7527 11.3574 21.3711 11.3574C22.9352 11.5706 24.4016 12.2403 25.587 13.2827C26.5329 14.3984 27.1162 15.7759 27.2593 17.2316V17.6532C27.2577 17.8404 27.2911 18.0263 27.3577 18.2013C27.3998 18.4261 27.6106 18.5105 27.9901 18.5105L27.9479 18.5526ZM25.1373 17.6251C25.4324 17.6251 25.6151 17.4705 25.6573 17.2738C25.7119 17.077 25.7402 16.8738 25.7416 16.6695C25.7227 16.2124 25.6137 15.7635 25.4207 15.3487C25.2278 14.9339 24.9548 14.5613 24.6173 14.2524C24.3204 13.9056 23.9548 13.6242 23.5436 13.4258C23.1324 13.2275 22.6845 13.1165 22.2283 13.1H21.7083C21.5628 13.1275 21.4334 13.21 21.347 13.3304C21.2606 13.4507 21.224 13.5998 21.2446 13.7465C21.2446 14.0556 21.4835 14.2524 21.9473 14.3508C22.6208 14.38 23.2555 14.674 23.7134 15.1687C24.1713 15.6635 24.4153 16.319 24.3925 16.9927C24.4231 17.1651 24.5158 17.3203 24.653 17.429C24.7902 17.5378 24.9625 17.5925 25.1373 17.583V17.6251Z" fill="#D6D0B1"/>
</svg>
