<svg width="40" height="40" viewBox="0 0 40 40" fill="none" xmlns="http://www.w3.org/2000/svg">
<path d="M34.3186 39.2369H4.90686C4.25779 39.2584 3.61133 39.1449 3.00835 38.9037C2.40537 38.6626 1.859 38.2989 1.40379 37.8357C0.944133 37.3837 0.582496 36.8419 0.341419 36.244C0.100342 35.6462 -0.0150053 35.0051 0.00256525 34.3606V4.90686C-0.0189011 4.25779 0.094548 3.61133 0.335738 3.00835C0.576929 2.40537 0.940613 1.859 1.40379 1.40379C1.859 0.940613 2.40537 0.576929 3.00835 0.335738C3.61133 0.094548 4.25779 -0.0189011 4.90686 0.00256525H34.3326C34.9817 -0.0189011 35.6282 0.094548 36.2311 0.335738C36.8341 0.576929 37.3805 0.940613 37.8357 1.40379C38.2989 1.859 38.6626 2.40537 38.9037 3.00835C39.1449 3.61133 39.2584 4.25779 39.2369 4.90686V34.3326C39.2295 35.6335 38.7085 36.8787 37.7874 37.7973C36.8662 38.7158 35.6195 39.2332 34.3186 39.2369ZM30.6474 29.5685C30.9346 29.5637 31.2134 29.4707 31.4461 29.3022C31.7376 29.163 31.9841 28.9447 32.1576 28.6722C32.331 28.3997 32.4243 28.0839 32.427 27.7609V11.1143C32.4377 10.8527 32.3693 10.5939 32.2308 10.3716C32.0847 10.0722 31.8605 9.81783 31.5818 9.63532C31.3031 9.45281 30.9802 9.34895 30.6474 9.33473H8.31184C8.16276 9.34827 8.01886 9.39624 7.89147 9.47486C7.55258 9.58793 7.25596 9.80116 7.0408 10.0864C6.82565 10.3716 6.70208 10.7153 6.68642 11.0723V27.7609C6.68856 28.0356 6.7714 28.3036 6.92463 28.5315C7.06457 28.8327 7.28539 29.0892 7.56248 29.2722C7.83957 29.4553 8.16206 29.5579 8.494 29.5685H30.6474ZM28.7417 25.8412H10.3857V15.4161L19.6197 22.7164L28.7417 15.4161V25.8412ZM19.6197 17.9523C15.5702 14.7575 13.4964 13.104 13.3983 13.02H25.7851L19.6197 17.9523Z" fill="#D6D0B1"/>
</svg>
