<svg width="154" height="80" viewBox="0 0 154 80" fill="none" xmlns="http://www.w3.org/2000/svg">
<path d="M19.392 28.32C16.96 28.32 15.072 27.584 13.728 26.112C12.448 24.64 11.808 22.88 11.808 20.832C11.808 19.936 11.904 19.008 12.096 18.048C12.544 16.256 13.248 14.528 14.208 12.864C15.232 11.136 16.384 9.504 17.664 7.96799C19.008 6.432 20.448 5.024 21.984 3.744C23.52 2.4 25.024 1.216 26.496 0.191998H34.56C31.68 2.24 29.376 4.192 27.648 6.048C25.92 7.904 24.352 9.952 22.944 12.192C24.864 12.512 26.368 13.28 27.456 14.496C28.544 15.648 29.088 16.992 29.088 18.528C29.088 18.976 29.056 19.456 28.992 19.968C28.928 20.48 28.832 20.928 28.704 21.312C28.128 23.488 27.04 25.216 25.44 26.496C23.84 27.712 21.824 28.32 19.392 28.32ZM42.816 28.32C40.384 28.32 38.496 27.584 37.152 26.112C35.872 24.64 35.232 22.88 35.232 20.832C35.232 19.936 35.328 19.008 35.52 18.048C35.968 16.256 36.672 14.528 37.632 12.864C38.656 11.136 39.808 9.504 41.088 7.96799C42.432 6.432 43.872 5.024 45.408 3.744C46.944 2.4 48.448 1.216 49.92 0.191998H57.984C55.104 2.24 52.8 4.192 51.072 6.048C49.344 7.904 47.776 9.952 46.368 12.192C48.288 12.512 49.792 13.28 50.88 14.496C51.968 15.648 52.512 16.992 52.512 18.528C52.512 18.976 52.48 19.456 52.416 19.968C52.352 20.48 52.256 20.928 52.128 21.312C51.552 23.488 50.464 25.216 48.864 26.496C47.264 27.712 45.248 28.32 42.816 28.32Z" fill="#D6D0B1"/>
<path d="M72.736 28.32C75.616 26.272 77.92 24.32 79.648 22.464C81.376 20.608 82.944 18.56 84.352 16.32C82.432 16 80.928 15.264 79.84 14.112C78.752 12.896 78.208 11.52 78.208 9.984C78.208 9.536 78.24 9.056 78.304 8.544C78.368 8.032 78.464 7.584 78.592 7.2C79.168 5.024 80.256 3.328 81.856 2.112C83.456 0.831997 85.472 0.191998 87.904 0.191998C90.336 0.191998 92.192 0.927998 93.472 2.4C94.816 3.872 95.488 5.632 95.488 7.68C95.488 8.576 95.392 9.504 95.2 10.464C94.752 12.256 94.016 14.016 92.992 15.744C92.032 17.408 90.88 19.008 89.536 20.544C88.256 22.08 86.848 23.52 85.312 24.864C83.776 26.144 82.272 27.296 80.8 28.32H72.736ZM96.16 28.32C99.04 26.272 101.344 24.32 103.072 22.464C104.8 20.608 106.368 18.56 107.776 16.32C105.856 16 104.352 15.264 103.264 14.112C102.176 12.896 101.632 11.52 101.632 9.984C101.632 9.536 101.664 9.056 101.728 8.544C101.792 8.032 101.888 7.584 102.016 7.2C102.592 5.024 103.68 3.328 105.28 2.112C106.88 0.831997 108.896 0.191998 111.328 0.191998C113.76 0.191998 115.616 0.927998 116.896 2.4C118.24 3.872 118.912 5.632 118.912 7.68C118.912 8.576 118.816 9.504 118.624 10.464C118.176 12.256 117.44 14.016 116.416 15.744C115.456 17.408 114.304 19.008 112.96 20.544C111.68 22.08 110.272 23.52 108.736 24.864C107.2 26.144 105.696 27.296 104.224 28.32H96.16Z" fill="#D6D0B1"/>
</svg>
