<svg fill="none" height="221" viewBox="0 0 506 221" width="506" xmlns="http://www.w3.org/2000/svg" xmlns:xlink="http://www.w3.org/1999/xlink"><clipPath id="a"><path d="m0 0h506v221h-506z"/></clipPath><g clip-path="url(#a)" fill="#435334"><path d="m23.895 9.84321v67.04359h-19.28051v-1.0971c0-1.0056.39597-1.5237 1.52295-1.5237l7.43196-.7009v-60.2478l-7.43196-.7923c-.2178.0018-.43346-.0431-.63244-.1318-.19898-.0886-.37663-.2189-.52098-.3821s-.25203-.3555-.31578-.5639c-.06374-.2083-.08207-.428-.05375-.644v-.99045h19.28051zm8.1326 67.28739c-3.716 0-4.3252-.899-4.3252-2.1027 0-.9143.6092-1.4171 2.6043-1.4171 10.0514-.3962 30.2305 1.3104 30.2305-30.2305 0-26.9089-15.062-30.3373-26.4079-30.3373-1.7058 0-3.5181.2133-4.4166.2133-.2453.0273-.4937.0043-.7298-.0679-.2361-.0721-.455-.1918-.6432-.3516-.1883-.1598-.3419-.3564-.4515-.5777-.1095-.2213-.1728-.4627-.1858-.7093 0-1.61517.7006-1.81327 5.1171-1.91993 24.0017 0 39.7642 8.24333 39.7642 33.65893 0 26.5127-18.0774 33.8418-40.5561 33.8418z"/><path d="m91.3619 66.3884c0 5.013 3.3048 7.6185 6.7162 7.6185 1.7448-.0699 3.4539-.5142 5.0119-1.3029 1.559-.7887 2.929-1.9033 4.019-3.2682.807-.0914 2.224.5028 1.416 1.9199-1.585 2.1746-3.675 3.9317-6.089 5.1207-2.414 1.1889-5.0797 1.7742-7.7694 1.7056-6.6248 0-13.2496-4.3274-13.2496-11.7479 0-10.4527 12.0465-14.7648 25.205-14.7648 1.903 0 1.401 2.1027.99 2.4989-7.9196.5637-16.2501 2.7731-16.2501 12.2202zm19.7981-12.3574v-11.5497c0-7.7405-2.513-13.165-9.138-13.165-5.9238 0-11.1323 5.2264-9.3352 14.262-3.3048 2.118-8.8331.5029-8.8331-4.2054 0-9.9499 11.4526-12.5707 17.6663-12.5707 14.361 0 19.28 5.9273 19.28 17.279v30.4743h6.625c.207-.0308.419-.0127.618.0529.199.0657.379.1771.527.3252s.26.329.325.5279c.066.199.084.4105.053.6177v.7923l-17.575 1.1124z"/><path d="m162.636 70.3957-2.3 6.5368h-4.325l-19.372-45.9096-3.213-.5028c-.217.0015-.431-.043-.629-.1308-.198-.0877-.374-.2166-.518-.3781-.145-.1614-.253-.3518-.317-.5583-.065-.2065-.085-.4245-.059-.6394v-.899h21.321v1.1123c0 .9904-.396 1.5237-1.523 1.5999l-5.315.5029zm14.255-37.9558 5.619-1.5237c.431-.0849.814-.327 1.076-.679.261-.352.383-.7889.341-1.2256v-1.1123h-19.281v1.1123c-.028.2198-.009.443.054.6554s.17.4093.313.5783.32.3064.519.4036c.199.0971.416.1519.637.1607l6.518 1.6151-9.229 25.2023c-1.401 3.1236.092 4.8302 2.208 4.8302z"/><path d="m194.862 31.3276-7.326-.1981c-1.096-.1066-1.523-.6094-1.523-1.5998v-.8077l18.672-1.3103v46.6105l5.117.5943c.216-.0016.43.0429.628.1307.198.0877.375.2166.519.3781s.252.3518.317.5583c.064.2066.085.4245.059.6394v.6095h-23.088v-.6095c-.026-.2149-.006-.4328.059-.6394.064-.2065.173-.3968.317-.5583s.321-.2904.518-.3781c.198-.0878.412-.1323.629-.1307l5.117-.5943zm4.568-13.8506c1.205 0 2.383-.3574 3.385-1.0271 1.002-.6698 1.782-1.6216 2.243-2.7353.462-1.1137.582-2.3392.347-3.5215-.235-1.18227-.815-2.26827-1.667-3.12066-.852-.85238-1.937-1.43288-3.119-1.66805s-2.407-.11446-3.52.34684c-1.113.46131-2.064 1.2425-2.734 2.2448-.669 1.0023-1.026 2.18067-1.026 3.38617-.032.805.102 1.6079.394 2.3587.292.7509.736 1.4334 1.303 2.0053.567.5718 1.246 1.0206 1.994 1.3184s1.55.4382 2.355.4124z"/><path d="m247.875 27.2136c2.883-.2097 5.752.5696 8.133 2.2094 1.096.899.106 2.316-.701 2.5141-2.203-1.1368-4.648-1.7223-7.127-1.7065-13.25 0-14.864 13.7134-14.864 25.8117 0 19.3817 11.041 23.2977 21.793 14.3534.792-.2895 2.909 1.1123 1.295 2.5142-14.346 12.7535-34.13 2.118-34.13-17.6751 0-18.0713 8.94-28.0212 25.601-28.0212zm21.184 47.2352 6.625.1067c.207-.0308.419-.0127.618.0529.199.0657.379.1771.527.3252s.26.329.325.5279c.066.199.084.4105.053.6177v.7923l-17.666 1.6152v-73.67173l-7.432-.30476c-1.112-.09143-1.523-.50281-1.614-1.59989v-.80757l18.58-2.10273474z"/><path d="m26.4993 108.275c2.8175 0 4.0206.899 2.1017 5.318-6.7162 17.081-8.1325 20.799-16.6611 42.283l7.6148 2.423c.4301.116.8058.38 1.0618.744.256.365.3761.808.3393 1.252v.61h-20.95578135v-.61c-.04951265-.446.06551275-.895.32348935-1.263.257977-.367.641162-.628 1.077622-.733l6.22886-2.423zm36.3376 49.11 6.2289 1.112c.2213.009.4383.064.6373.161.1991.097.3757.234.5189.403s.2497.366.3129.579c.0631.212.0814.435.0538.655v.61h-26.7277v-.61c-.026-.215-.0059-.433.0589-.639.0648-.207.1729-.397.317-.559.1441-.161.3209-.29.5187-.378.1978-.087.412-.132.6283-.13l6.5335-.991-8.8331-23.115h-16.0824c-.2077.035-.4206.019-.621-.046-.2005-.064-.3827-.175-.5315-.324-.1489-.149-.2601-.332-.3246-.532-.0644-.201-.0801-.414-.0458-.621v-.717c0-1.005.3959-1.523 1.5229-1.523h14.6508l-11.4374-28.814c-.1959-.444-.2972-.924-.2972-1.409 0-.486.1013-.9656.2972-1.4096l2.1017-5.3178h4.5688z"/><path d="m89.1229 111.384v46.686l7.5234.397c1.0965.106 1.5229.609 1.5229 1.615v.899h-25.3875v-.701c0-1.006.3959-1.524 1.5229-1.707l5.1171-.503v-42.862l-6.4268-.304c-1.0966-.107-1.523-.61-1.523-1.6v-.808zm13.7061 7.131c.924-.048 1.848.097 2.713.425.865.327 1.653.831 2.313 1.479.913-.47 1.672-1.192 2.187-2.081.516-.888.766-1.905.722-2.932 0-2.91-2.117-4.723-5.62-4.723-5.726 0-13.4626 4.327-13.4626 11.352 0 .807.4113 1.203.6092 1.203 2.7732-2.883 6.5441-4.595 10.5384-4.784z"/><path d="m132.223 158.07 6.015.397c1.112.106 1.523.609 1.523 1.615v.899h-23.91v-.899c0-1.006.396-1.524 1.523-1.615l5.026-.305v-42.756l-7.036-.304c-1.097-.092-1.523-.595-1.523-1.6v-.808l18.382-1.204zm32.926 0c.502-11.549.7-19.808.7-31.434 0-10.056-5.421-15.679-16.158-15.679-8.437 0-13.463 5.226-13.707 7.238-.027.151-.018.307.029.454.046.147.127.28.237.389.11.108.244.188.391.232.148.044.304.052.455.022 2.679-2.726 6.308-4.309 10.128-4.419 8.741 0 8.741 9.554 8.741 16.883 0 11.352-.304 15.069-.7 26.406l-3.914.305c-1.112.106-1.523.609-1.523 1.615v.899h22.189v-.808c0-1.005-.411-1.524-1.523-1.6zm32.515 0c.502-11.549.716-19.808.716-31.434 0-10.056-5.422-15.679-16.174-15.679-8.422 0-13.448 5.226-13.707 7.238-.027.15-.017.304.029.45.045.145.125.277.233.385s.24.188.385.234c.146.045.3.055.45.028 2.685-2.727 6.319-4.31 10.143-4.419 8.741 0 8.741 9.554 8.741 16.883 0 11.352-.304 15.069-.715 26.406l-3.914.305c-1.097.106-1.523.609-1.523 1.615v.899h22.189v-.808c0-1.005-.396-1.524-1.523-1.6z"/><path d="m228.199 159.503c.073.27.081.553.023.827s-.181.53-.359.746c-.177.216-.404.387-.661.498-.257.11-.536.158-.816.138-6.426.198-15.351-2.712-15.351-8.837 0-2.515 1.523-4.724 6.092-5.333.822 7.74 6.244 11.458 11.072 11.961zm5.711 2.011c-2.208.29-2.604-1.31-2.406-2.011 3.624-.412 8.33-2.514 8.33-9.645 0-12.053-26.697-8.137-26.697-24.913 0-6.324 4.919-12.86 13.95-13.714 2.315-.198 2.62 1.402 2.406 2.21-2.314.164-4.47 1.239-5.994 2.99-1.524 1.75-2.293 4.034-2.138 6.35 0 13.165 26.408 6.735 26.408 24.806 0 6.689-5.818 12.921-13.859 13.927zm-.899-48.012c-.304-.412-.304-2.514 2.209-2.423 6.426.305 11.742 4.327 11.742 9.249 0 3.413-2.909 5.226-5.925 5.226-.924.026-1.843-.145-2.695-.503.234-1.159.367-2.337.396-3.519 0-3.413-1.31-7.025-5.727-8.03z"/><path d="m261.734 114.507h-5.422c-.207.031-.418.013-.617-.053-.199-.065-.38-.177-.528-.325s-.259-.329-.325-.528c-.065-.199-.083-.41-.052-.617v-1.113h7.02l.107-11.854 9.838-2.9105c-.502 30.3375-.914 44.0055-.914 52.8425 0 5.912 1.919 9.539 5.529 9.539 6.731 0 8.635-6.537 8.132-12.754l1.904-.107c1.812 8.442-2.3 15.375-11.437 15.375-9.839-.107-13.555-5.135-13.707-14.476-.046-8.121.259-20.57.472-33.019zm13.95 0c-.609 0-2.01-.609-1.111-2.62h11.254v1.112c.031.207.013.419-.053.618-.065.199-.177.379-.325.528-.148.148-.328.259-.527.325-.199.065-.411.084-.618.053z"/><path d="m308.915 111.384v46.686l7.524.397c1.111.106 1.523.609 1.523 1.615v.899h-25.418v-.701c0-1.006.411-1.524 1.522-1.707l5.118-.503v-42.862l-6.412-.304c-1.112-.107-1.523-.61-1.523-1.6v-.808zm13.707 7.131c.924-.05 1.848.094 2.713.422.866.328 1.653.833 2.313 1.482.912-.47 1.671-1.192 2.187-2.081.515-.888.766-1.905.721-2.932 0-2.91-2.101-4.723-5.619-4.723-5.727 0-13.448 4.327-13.448 11.352 0 .807.396 1.203.594 1.203 2.758-2.869 6.504-4.579 10.478-4.784z"/><path d="m357.497 161.91c-9.625 0-21.474-8.731-21.474-25.507s11.849-25.568 21.474-25.568c.262-.03.526.012.765.123.239.11.443.285.59.504.146.218.229.473.24.737.011.263-.051.524-.179.754-8.026 1.097-11.955 9.036-11.955 23.404 0 14.369 3.929 22.292 11.955 23.39.305.35.808 2.163-1.416 2.163zm17.681-25.507c0-14.368-3.913-22.307-11.955-23.404-.098-.233-.137-.487-.114-.738.024-.252.11-.494.251-.704.14-.21.331-.382.554-.5.224-.118.473-.178.726-.176 9.625 0 21.473 8.746 21.473 25.522s-11.848 25.507-21.473 25.507c-2.209 0-1.813-1.813-1.417-2.118 8.042-1.097 11.955-9.035 11.955-23.389z"/><path d="m411.12 158.07 6.016.397c1.112.106 1.523.609 1.523 1.615v.899h-24.002v-.899c0-1.006.396-1.524 1.523-1.615l5.148-.397v-42.572l-7.036-.29c-1.097-.106-1.523-.503-1.6-1.615v-.792l18.474-1.219zm38.074.503c1.096.092 1.523.595 1.523 1.6v.808h-22.235v-.899c0-1.006.396-1.524 1.523-1.615l3.914-.305c.396-11.337.807-15.054.807-26.406 0-7.329-.198-16.883-8.94-16.883-3.792.111-7.392 1.696-10.036 4.419-.151.026-.305.016-.451-.03-.146-.045-.278-.125-.387-.232-.109-.108-.19-.239-.238-.385-.048-.145-.06-.299-.036-.45.213-2.012 5.224-7.238 13.707-7.238 10.432 0 16.265 5.623 16.265 15.679 0 11.641-.305 19.885-.807 31.434z"/><path d="m505.985 168.036c0 7.329-6.092 18.985-27.901 18.985-4.569 0-21.687-.899-21.687-13.866 0-6.018 2.909-8.929 6.519-8.929.871-.038 1.733.191 2.471.657.737.465 1.315 1.146 1.656 1.949-.879.706-1.576 1.612-2.032 2.644-.456 1.031-.657 2.157-.588 3.283 0 4.571 4.569 11.047 15.23 11.047 8.635 0 18.58-4.221 18.58-13.165 0-12.19-37.054-2.605-37.054-17.568.133-1.387.669-2.704 1.544-3.788s2.049-1.886 3.376-2.307c.03 13.53 39.886 1.478 39.886 21.058zm-47.775-39.617c0-9.95 7.523-15.664 16.052-17.279 2.01-.396 3.518.503 2.908 2.011-3.807.808-8.726 4.023-8.726 15.161 0 13.059 5.818 15.375 8.635 15.375.198 1.523-.502 2.102-2.315 2.102-4.469-.166-8.698-2.068-11.789-5.303-3.091-3.234-4.8-7.547-4.765-12.021zm22.981 15.237c2.818 0 8.635-2.819 8.635-15.374 0-11.748-4.919-14.354-8.726-15.161-.609-1.524.898-2.408 2.909-2.012 8.528 1.616 16.051 7.33 16.051 17.279.08 4.494-1.602 8.84-4.684 12.109s-7.321 5.201-11.809 5.384c-1.873 0-2.574-.64-2.376-2.149zm13.356-45.9095c.725-.0416 1.45.0656 2.132.3151.681.2495 1.304.636 1.831 1.1357.526.4996.945 1.1017 1.23 1.7697s.43 1.386.427 2.113c-.071 1.195-.436 2.354-1.063 3.374s-1.496 1.869-2.529 2.472c-1.034.603-2.201.941-3.397.985-1.196.043-2.384-.21-3.458-.737 1.655-1.962 2.547-4.456 2.512-7.024-.001-1.285-.134-2.5664-.396-3.8245.871-.3125 1.787-.4824 2.711-.5028z"/><path d="m271.512 217.084v-10.255h-10.57v2.606h7.798v6.354c-2.11 1.651-4.709 2.552-7.387 2.56-6.213 0-10.127-4.571-10.127-10.666 0-5.729 4.051-10.529 9.716-10.529 2.884-.096 5.688.957 7.798 2.925l1.858-2.194c-2.618-2.326-6.036-3.544-9.534-3.398-1.722.001-3.426.349-5.011 1.022-1.585.672-3.019 1.657-4.216 2.895-1.198 1.238-2.135 2.704-2.755 4.311s-.911 3.322-.856 5.044c0 7.359 4.98 13.211 13.021 13.211 3.784-.009 7.435-1.401 10.265-3.916m-34.754-1.616-16.128-20.509h-2.696v25.614h2.802v-20.982l16.524 20.982h2.3v-25.599h-2.802zm-31.769 5.105h2.924v-25.599h-2.893zm-16.874-22.856h8.589v-2.666h-20.103v2.666h8.59v22.856h2.924zm-31.145 22.856h17.286v-2.667h-14.407v-22.916h-2.879zm-9.396-25.599h-2.894v14.933c0 5.592-3.046 8.441-7.706 8.441s-7.828-3.047-7.828-8.624v-14.704h-2.878v14.887c0 7.238 4.31 11.108 10.66 11.108 6.351 0 10.661-3.87 10.661-11.337zm-44.623 6.4c0-2.346 2.117-4.175 5.437-4.175 2.719.001 5.345.992 7.387 2.788l1.675-2.239c-2.505-2.12-5.706-3.238-8.986-3.139-4.858 0-8.406 2.925-8.406 7.024s2.711 6.095 8.589 7.421c5.376 1.127 6.656 2.483 6.656 4.891 0 2.407-2.27 4.388-5.712 4.388-1.629.016-3.245-.296-4.751-.916-1.507-.621-2.874-1.537-4.021-2.695l-1.7816 2.118c2.8186 2.671 6.5656 4.141 10.4476 4.099 5.087 0 8.742-2.85 8.742-7.284 0-3.946-2.635-6.095-8.331-7.268s-6.945-2.56-6.945-5.013zm-14.8483 14.11-16.1128-20.51h-2.6652v25.599h2.8175v-20.982l16.4783 20.982h2.2996v-25.599h-2.8174zm-30.459-7.619c.0616 1.357-.1517 2.712-.6271 3.984-.4753 1.272-1.203 2.435-2.1391 3.419-.9361.983-2.0614 1.767-3.3081 2.305-1.2468.537-2.5893.816-3.9467.821-1.3703-.011-2.7243-.298-3.9808-.846-1.2564-.547-2.3894-1.342-3.331-2.338-.9416-.997-1.6723-2.173-2.1483-3.458-.476-1.286-.6875-2.655-.6219-4.024-.0637-1.356.1476-2.711.6213-3.983.4736-1.272 1.1998-2.435 2.1347-3.419s2.0592-1.768 3.3052-2.305c1.246-.538 2.5878-.817 3.9446-.822 1.3709.011 2.7256.298 3.9829.845 1.2572.547 2.3912 1.343 3.3339 2.339.9428.996 1.675 2.172 2.1527 3.457.4778 1.286.6912 2.655.6277 4.025zm3.0459-.076c-.045-2.571-.8478-5.072-2.3077-7.188-1.4598-2.117-3.5118-3.755-5.8986-4.709-2.3867-.955-5.0019-1.183-7.5177-.656-2.5157.527-4.8199 1.786-6.6237 3.618-1.8037 1.831-3.0267 4.156-3.5155 6.68-.4888 2.525-.2217 5.138.7679 7.511s2.6575 4.401 4.7946 5.83 4.6483 2.194 7.2185 2.201c1.7389.014 3.463-.321 5.0699-.986 1.6068-.665 3.0637-1.646 4.284-2.885 1.2204-1.24 2.1793-2.712 2.8197-4.329.6405-1.618.9495-3.348.9086-5.087zm-31.8297 8.777-1.9037-1.859c-1.0398 1.16-2.3122 2.088-3.7345 2.723-1.4222.636-2.9623.964-4.5199.964-2.681-.177-5.1946-1.367-7.0311-3.329-1.83648-1.962-2.85832-4.55-2.85832-7.238s1.02184-5.276 2.85832-7.238c1.8365-1.962 4.3501-3.152 7.0311-3.329 1.4977.015 2.9768.334 4.3482.936 1.3715.602 2.607 1.476 3.6321 2.569l1.9646-2.134c-1.2895-1.332-2.8427-2.381-4.5603-3.079-1.7177-.698-3.562-1.03-5.415-.974-3.51-.014-6.8818 1.368-9.37378 3.841-2.49193 2.473-3.89983 5.835-3.91397 9.347-.01413 3.512 1.36664 6.885 3.83859 9.379 2.47196 2.493 5.83256 3.901 9.34256 3.916 1.9356.029 3.8543-.365 5.622-1.154 1.7677-.79 3.3418-1.956 4.6122-3.418"/></g></svg>