<svg width="40" height="40" viewBox="0 0 40 40" fill="none" xmlns="http://www.w3.org/2000/svg">
<path d="M34.5206 39.3512H5.0232C4.37224 39.3727 3.72389 39.2589 3.11916 39.017C2.51443 38.7751 1.96647 38.4104 1.50993 37.9458C1.04893 37.4926 0.686242 36.9492 0.444464 36.3496C0.202685 35.7499 0.0870018 35.107 0.104624 34.4607V4.92114C0.0830947 4.27018 0.196874 3.62184 0.438767 3.01711C0.680659 2.41238 1.0454 1.86442 1.50993 1.40788C1.96647 0.943351 2.51443 0.578609 3.11916 0.336716C3.72389 0.0948232 4.37224 -0.0189561 5.0232 0.00257272H34.5346C35.1856 -0.0189561 35.8339 0.0948232 36.4387 0.336716C37.0434 0.578609 37.5914 0.943351 38.0479 1.40788C38.5124 1.86442 38.8772 2.41238 39.1191 3.01711C39.361 3.62184 39.4747 4.27018 39.4532 4.92114V34.4326C39.4458 35.7372 38.9233 36.9861 37.9994 37.9073C37.0756 38.8285 35.8252 39.3475 34.5206 39.3512ZM10.0964 13.1984C10.5063 13.2171 10.916 13.1547 11.3018 13.0149C11.6876 12.875 12.0421 12.6604 12.3448 12.3833C12.6148 12.1383 12.8296 11.8387 12.975 11.5043C13.1204 11.17 13.193 10.8085 13.188 10.444C13.1639 9.68486 12.8465 8.9646 12.3027 8.43441C11.7226 7.91088 10.9616 7.63367 10.1807 7.66149C9.36019 7.62409 8.55625 7.90045 7.93218 8.43441C7.66369 8.69334 7.4534 9.00646 7.31529 9.35295C7.17717 9.69945 7.11441 10.0714 7.13116 10.444C7.12515 10.8048 7.19312 11.1631 7.33089 11.4966C7.46866 11.8301 7.67329 12.1319 7.93218 12.3833C8.21945 12.6579 8.55922 12.8716 8.9311 13.0117C9.30299 13.1517 9.69932 13.2152 10.0964 13.1984ZM12.7524 15.4609H7.39816V31.6782H12.7524V15.4609ZM32.2159 22.4032C32.4006 20.3728 31.7741 18.3518 30.4733 16.7819C29.8993 16.194 29.2094 15.7318 28.4474 15.4246C27.6854 15.1173 26.8678 14.9718 26.0466 14.9972C24.8741 14.8958 23.7049 15.2256 22.7582 15.9247C22.1477 16.4594 21.6175 17.0794 21.1842 17.7656V15.4609H15.83V31.6782H21.1842V21.9113C21.1757 21.7009 21.2242 21.4921 21.3248 21.307C21.5424 20.7703 21.8787 20.2899 22.3085 19.9017C22.8055 19.4707 23.4503 19.2491 24.1073 19.2834C24.5197 19.2479 24.9338 19.3276 25.3035 19.5137C25.6733 19.6998 25.984 19.985 26.2012 20.3374C26.6437 21.1556 26.8573 22.078 26.8195 23.0074V31.6501H32.2299L32.2159 22.4032ZM21.1842 17.85C21.1815 17.8383 21.1818 17.8262 21.1851 17.8148C21.1884 17.8033 21.1945 17.7928 21.203 17.7844C21.2114 17.776 21.2219 17.7698 21.2333 17.7665C21.2448 17.7633 21.2569 17.763 21.2685 17.7656V17.85H21.1842Z" fill="#D6D0B1"/>
</svg>
