<svg width="40" height="40" viewBox="0 0 40 40" fill="none" xmlns="http://www.w3.org/2000/svg">
<path d="M35.0648 39.3512H5.56739C4.91643 39.3727 4.26808 39.2589 3.66335 39.017C3.05862 38.7751 2.51066 38.4104 2.05412 37.9458C1.59312 37.4926 1.23043 36.9492 0.988653 36.3496C0.746875 35.7499 0.631191 35.107 0.648813 34.4607V4.92114C0.627284 4.27018 0.741063 3.62184 0.982956 3.01711C1.22485 2.41238 1.58959 1.86442 2.05412 1.40788C2.51066 0.943351 3.05862 0.578609 3.66335 0.336716C4.26808 0.0948232 4.91643 -0.0189561 5.56739 0.00257272H35.0788C35.7298 -0.0189561 36.3781 0.0948232 36.9829 0.336716C37.5876 0.578609 38.1355 0.943351 38.5921 1.40788C39.0566 1.86442 39.4214 2.41238 39.6632 3.01711C39.9051 3.62184 40.0189 4.27018 39.9974 4.92114V34.4326C39.99 35.7372 39.4675 36.9861 38.5436 37.9073C37.6198 38.8285 36.3694 39.3475 35.0648 39.3512ZM15.6013 30.0621C19.1507 30.0906 22.5904 28.8325 25.2838 26.5207C27.2449 24.7791 28.7339 22.5698 29.6122 20.0985C30.1612 18.5785 30.4556 16.9784 30.4835 15.3626V14.4632C30.9875 14.083 31.4577 13.6598 31.8888 13.1984C32.3137 12.7612 32.7037 12.2913 33.0552 11.7931C32.1358 12.2331 31.1466 12.509 30.1321 12.6082C30.5292 12.3709 30.8971 12.0879 31.2283 11.765C31.73 11.1698 32.1204 10.4891 32.3806 9.7554C31.7085 10.1696 30.9859 10.4955 30.2305 10.7251C29.8412 10.8563 29.4416 10.955 29.036 11.0202C28.0348 9.99905 26.6716 9.4134 25.2417 9.39002C23.8662 9.38284 22.5433 9.91806 21.5598 10.8796C21.0501 11.3613 20.6459 11.9435 20.3725 12.5893C20.0992 13.2351 19.9628 13.9306 19.9718 14.6318C19.9758 15.0339 20.0229 15.4343 20.1123 15.8263C19.3435 15.7822 18.5783 15.6883 17.8217 15.5453C16.0414 15.1137 14.3392 14.4073 12.7766 13.4514C11.4655 12.5633 10.2954 11.4832 9.3055 10.2473C8.78978 11.1894 8.56773 12.2643 8.6679 13.3336C8.76808 14.403 9.1859 15.418 9.86762 16.2479C10.1495 16.6215 10.4972 16.9406 10.8935 17.1895C10.082 17.1611 9.28825 16.9446 8.57474 16.5571C8.57252 17.2677 8.71179 17.9717 8.98443 18.628C9.25707 19.2842 9.65762 19.8796 10.1627 20.3795C10.6874 20.8765 11.3095 21.2593 11.9896 21.5038C12.2244 21.6083 12.4692 21.6884 12.7204 21.7427C12.5325 21.8211 12.3332 21.8686 12.1302 21.8832H11.3291C11.0186 21.8847 10.7084 21.8612 10.4016 21.8129C10.7719 22.9702 11.5317 23.9634 12.5518 24.6235C13.3671 25.1434 14.3112 25.4257 15.2781 25.4386C14.8176 25.8196 14.3238 26.1582 13.8025 26.4504C12.3173 27.241 10.6646 27.665 8.98228 27.6871C8.51417 27.7119 8.04508 27.7119 7.57697 27.6871C9.96238 29.2455 12.752 30.0711 15.6013 30.0621Z" fill="#D6D0B1"/>
</svg>
