<svg width="108" height="29" viewBox="0 0 108 29" fill="none" xmlns="http://www.w3.org/2000/svg">
<path d="M8.39211 28.32C5.96011 28.32 4.07211 27.584 2.72811 26.112C1.44811 24.64 0.808105 22.88 0.808105 20.832C0.808105 19.936 0.904105 19.008 1.09611 18.048C1.54411 16.256 2.24811 14.528 3.20811 12.864C4.23211 11.136 5.38411 9.50402 6.66411 7.96801C8.00811 6.43201 9.44811 5.02402 10.9841 3.74402C12.5201 2.40001 14.0241 1.21601 15.4961 0.192017H23.5601C20.6801 2.24002 18.3761 4.19202 16.6481 6.04802C14.9201 7.90401 13.3521 9.95201 11.9441 12.192C13.8641 12.512 15.3681 13.28 16.4561 14.496C17.5441 15.648 18.0881 16.992 18.0881 18.528C18.0881 18.976 18.0561 19.456 17.9921 19.968C17.9281 20.48 17.8321 20.928 17.7041 21.312C17.1281 23.488 16.0401 25.216 14.4401 26.496C12.8401 27.712 10.8241 28.32 8.39211 28.32ZM31.8161 28.32C29.3841 28.32 27.4961 27.584 26.1521 26.112C24.8721 24.64 24.2321 22.88 24.2321 20.832C24.2321 19.936 24.3281 19.008 24.5201 18.048C24.9681 16.256 25.6721 14.528 26.6321 12.864C27.6561 11.136 28.8081 9.50402 30.0881 7.96801C31.4321 6.43201 32.8721 5.02402 34.4081 3.74402C35.9441 2.40001 37.4481 1.21601 38.9201 0.192017H46.9841C44.1041 2.24002 41.8001 4.19202 40.0721 6.04802C38.3441 7.90401 36.7761 9.95201 35.3681 12.192C37.2881 12.512 38.7921 13.28 39.8801 14.496C40.9681 15.648 41.5121 16.992 41.5121 18.528C41.5121 18.976 41.4801 19.456 41.4161 19.968C41.3521 20.48 41.2561 20.928 41.1281 21.312C40.5521 23.488 39.4641 25.216 37.8641 26.496C36.2641 27.712 34.2481 28.32 31.8161 28.32Z" fill="#D6D0B1"/>
<path d="M61.7361 28.32C64.6161 26.272 66.9201 24.32 68.6481 22.464C70.3761 20.608 71.9441 18.56 73.3521 16.32C71.4321 16 69.9281 15.264 68.8401 14.112C67.7521 12.896 67.2081 11.52 67.2081 9.98402C67.2081 9.53601 67.2401 9.05602 67.3041 8.54402C67.3681 8.03202 67.4641 7.58402 67.5921 7.20002C68.1681 5.02402 69.2561 3.32801 70.8561 2.11201C72.4561 0.832016 74.4721 0.192017 76.9041 0.192017C79.3361 0.192017 81.1921 0.928017 82.4721 2.40002C83.8161 3.87202 84.4881 5.63202 84.4881 7.68002C84.4881 8.57602 84.3921 9.50402 84.2001 10.464C83.7521 12.256 83.0161 14.016 81.9921 15.744C81.0321 17.408 79.8801 19.008 78.5361 20.544C77.2561 22.08 75.8481 23.52 74.3121 24.864C72.7761 26.144 71.2721 27.296 69.8001 28.32H61.7361ZM85.1601 28.32C88.0401 26.272 90.3441 24.32 92.0721 22.464C93.8001 20.608 95.3681 18.56 96.7761 16.32C94.8561 16 93.3521 15.264 92.2641 14.112C91.1761 12.896 90.6321 11.52 90.6321 9.98402C90.6321 9.53601 90.6641 9.05602 90.7281 8.54402C90.7921 8.03202 90.8881 7.58402 91.0161 7.20002C91.5921 5.02402 92.6801 3.32801 94.2801 2.11201C95.8801 0.832016 97.8961 0.192017 100.328 0.192017C102.76 0.192017 104.616 0.928017 105.896 2.40002C107.24 3.87202 107.912 5.63202 107.912 7.68002C107.912 8.57602 107.816 9.50402 107.624 10.464C107.176 12.256 106.44 14.016 105.416 15.744C104.456 17.408 103.304 19.008 101.96 20.544C100.68 22.08 99.2721 23.52 97.7361 24.864C96.2001 26.144 94.6961 27.296 93.2241 28.32H85.1601Z" fill="#D6D0B1"/>
</svg>
